<svg xmlns="http://www.w3.org/2000/svg" viewBox="0 0 1900 1181" width="1900" height="1181" font-family="Arial, sans-serif">
<rect x="0" y="0" width="1900" height="1200" fill="#f5f2ea"/>
<text x="44" y="46" font-size="15" letter-spacing="2" fill="#b5732a" font-family="ui-monospace, Consolas, monospace" font-weight="700">OWLBOX · ADAPTER-PLATINE</text>
<text x="44" y="80" font-size="28" font-weight="800" fill="#1c231e" font-family="Arial, sans-serif">Layout-Vorschlag: Verteilung der Anschlüsse</text>
<text x="44" y="105" font-size="14" fill="#6d7669" font-family="Arial, sans-serif">Lochraster/Stripboard, ca. 90x60mm - Anschlüsse zeigen jeweils Richtung des Zielbauteils im Gehäuse</text>
<rect x="560" y="280" width="740" height="560" rx="10" fill="#efe9d8" stroke="#1c231e" stroke-width="2.5"/>
<circle cx="584" cy="304" r="2" fill="#c9c2af"/>
<circle cx="584" cy="328" r="2" fill="#c9c2af"/>
<circle cx="584" cy="352" r="2" fill="#c9c2af"/>
<circle cx="584" cy="376" r="2" fill="#c9c2af"/>
<circle cx="584" cy="400" r="2" fill="#c9c2af"/>
<circle cx="584" cy="424" r="2" fill="#c9c2af"/>
<circle cx="584" cy="448" r="2" fill="#c9c2af"/>
<circle cx="584" cy="472" r="2" fill="#c9c2af"/>
<circle cx="584" cy="496" r="2" fill="#c9c2af"/>
<circle cx="584" cy="520" r="2" fill="#c9c2af"/>
<circle cx="584" cy="544" r="2" fill="#c9c2af"/>
<circle cx="584" cy="568" r="2" fill="#c9c2af"/>
<circle cx="584" cy="592" r="2" fill="#c9c2af"/>
<circle cx="584" cy="616" r="2" fill="#c9c2af"/>
<circle cx="584" cy="640" r="2" fill="#c9c2af"/>
<circle cx="584" cy="664" r="2" fill="#c9c2af"/>
<circle cx="584" cy="688" r="2" fill="#c9c2af"/>
<circle cx="584" cy="712" r="2" fill="#c9c2af"/>
<circle cx="584" cy="736" r="2" fill="#c9c2af"/>
<circle cx="584" cy="760" r="2" fill="#c9c2af"/>
<circle cx="584" cy="784" r="2" fill="#c9c2af"/>
<circle cx="584" cy="808" r="2" fill="#c9c2af"/>
<circle cx="584" cy="832" r="2" fill="#c9c2af"/>
<circle cx="608" cy="304" r="2" fill="#c9c2af"/>
<circle cx="608" cy="328" r="2" fill="#c9c2af"/>
<circle cx="608" cy="352" r="2" fill="#c9c2af"/>
<circle cx="608" cy="376" r="2" fill="#c9c2af"/>
<circle cx="608" cy="400" r="2" fill="#c9c2af"/>
<circle cx="608" cy="424" r="2" fill="#c9c2af"/>
<circle cx="608" cy="448" r="2" fill="#c9c2af"/>
<circle cx="608" cy="472" r="2" fill="#c9c2af"/>
<circle cx="608" cy="496" r="2" fill="#c9c2af"/>
<circle cx="608" cy="520" r="2" fill="#c9c2af"/>
<circle cx="608" cy="544" r="2" fill="#c9c2af"/>
<circle cx="608" cy="568" r="2" fill="#c9c2af"/>
<circle cx="608" cy="592" r="2" fill="#c9c2af"/>
<circle cx="608" cy="616" r="2" fill="#c9c2af"/>
<circle cx="608" cy="640" r="2" fill="#c9c2af"/>
<circle cx="608" cy="664" r="2" fill="#c9c2af"/>
<circle cx="608" cy="688" r="2" fill="#c9c2af"/>
<circle cx="608" cy="712" r="2" fill="#c9c2af"/>
<circle cx="608" cy="736" r="2" fill="#c9c2af"/>
<circle cx="608" cy="760" r="2" fill="#c9c2af"/>
<circle cx="608" cy="784" r="2" fill="#c9c2af"/>
<circle cx="608" cy="808" r="2" fill="#c9c2af"/>
<circle cx="608" cy="832" r="2" fill="#c9c2af"/>
<circle cx="632" cy="304" r="2" fill="#c9c2af"/>
<circle cx="632" cy="328" r="2" fill="#c9c2af"/>
<circle cx="632" cy="352" r="2" fill="#c9c2af"/>
<circle cx="632" cy="376" r="2" fill="#c9c2af"/>
<circle cx="632" cy="400" r="2" fill="#c9c2af"/>
<circle cx="632" cy="424" r="2" fill="#c9c2af"/>
<circle cx="632" cy="448" r="2" fill="#c9c2af"/>
<circle cx="632" cy="472" r="2" fill="#c9c2af"/>
<circle cx="632" cy="496" r="2" fill="#c9c2af"/>
<circle cx="632" cy="520" r="2" fill="#c9c2af"/>
<circle cx="632" cy="544" r="2" fill="#c9c2af"/>
<circle cx="632" cy="568" r="2" fill="#c9c2af"/>
<circle cx="632" cy="592" r="2" fill="#c9c2af"/>
<circle cx="632" cy="616" r="2" fill="#c9c2af"/>
<circle cx="632" cy="640" r="2" fill="#c9c2af"/>
<circle cx="632" cy="664" r="2" fill="#c9c2af"/>
<circle cx="632" cy="688" r="2" fill="#c9c2af"/>
<circle cx="632" cy="712" r="2" fill="#c9c2af"/>
<circle cx="632" cy="736" r="2" fill="#c9c2af"/>
<circle cx="632" cy="760" r="2" fill="#c9c2af"/>
<circle cx="632" cy="784" r="2" fill="#c9c2af"/>
<circle cx="632" cy="808" r="2" fill="#c9c2af"/>
<circle cx="632" cy="832" r="2" fill="#c9c2af"/>
<circle cx="656" cy="304" r="2" fill="#c9c2af"/>
<circle cx="656" cy="328" r="2" fill="#c9c2af"/>
<circle cx="656" cy="352" r="2" fill="#c9c2af"/>
<circle cx="656" cy="376" r="2" fill="#c9c2af"/>
<circle cx="656" cy="400" r="2" fill="#c9c2af"/>
<circle cx="656" cy="424" r="2" fill="#c9c2af"/>
<circle cx="656" cy="448" r="2" fill="#c9c2af"/>
<circle cx="656" cy="472" r="2" fill="#c9c2af"/>
<circle cx="656" cy="496" r="2" fill="#c9c2af"/>
<circle cx="656" cy="520" r="2" fill="#c9c2af"/>
<circle cx="656" cy="544" r="2" fill="#c9c2af"/>
<circle cx="656" cy="568" r="2" fill="#c9c2af"/>
<circle cx="656" cy="592" r="2" fill="#c9c2af"/>
<circle cx="656" cy="616" r="2" fill="#c9c2af"/>
<circle cx="656" cy="640" r="2" fill="#c9c2af"/>
<circle cx="656" cy="664" r="2" fill="#c9c2af"/>
<circle cx="656" cy="688" r="2" fill="#c9c2af"/>
<circle cx="656" cy="712" r="2" fill="#c9c2af"/>
<circle cx="656" cy="736" r="2" fill="#c9c2af"/>
<circle cx="656" cy="760" r="2" fill="#c9c2af"/>
<circle cx="656" cy="784" r="2" fill="#c9c2af"/>
<circle cx="656" cy="808" r="2" fill="#c9c2af"/>
<circle cx="656" cy="832" r="2" fill="#c9c2af"/>
<circle cx="680" cy="304" r="2" fill="#c9c2af"/>
<circle cx="680" cy="328" r="2" fill="#c9c2af"/>
<circle cx="680" cy="352" r="2" fill="#c9c2af"/>
<circle cx="680" cy="376" r="2" fill="#c9c2af"/>
<circle cx="680" cy="400" r="2" fill="#c9c2af"/>
<circle cx="680" cy="424" r="2" fill="#c9c2af"/>
<circle cx="680" cy="448" r="2" fill="#c9c2af"/>
<circle cx="680" cy="472" r="2" fill="#c9c2af"/>
<circle cx="680" cy="496" r="2" fill="#c9c2af"/>
<circle cx="680" cy="520" r="2" fill="#c9c2af"/>
<circle cx="680" cy="544" r="2" fill="#c9c2af"/>
<circle cx="680" cy="568" r="2" fill="#c9c2af"/>
<circle cx="680" cy="592" r="2" fill="#c9c2af"/>
<circle cx="680" cy="616" r="2" fill="#c9c2af"/>
<circle cx="680" cy="640" r="2" fill="#c9c2af"/>
<circle cx="680" cy="664" r="2" fill="#c9c2af"/>
<circle cx="680" cy="688" r="2" fill="#c9c2af"/>
<circle cx="680" cy="712" r="2" fill="#c9c2af"/>
<circle cx="680" cy="736" r="2" fill="#c9c2af"/>
<circle cx="680" cy="760" r="2" fill="#c9c2af"/>
<circle cx="680" cy="784" r="2" fill="#c9c2af"/>
<circle cx="680" cy="808" r="2" fill="#c9c2af"/>
<circle cx="680" cy="832" r="2" fill="#c9c2af"/>
<circle cx="704" cy="304" r="2" fill="#c9c2af"/>
<circle cx="704" cy="328" r="2" fill="#c9c2af"/>
<circle cx="704" cy="352" r="2" fill="#c9c2af"/>
<circle cx="704" cy="376" r="2" fill="#c9c2af"/>
<circle cx="704" cy="400" r="2" fill="#c9c2af"/>
<circle cx="704" cy="424" r="2" fill="#c9c2af"/>
<circle cx="704" cy="448" r="2" fill="#c9c2af"/>
<circle cx="704" cy="472" r="2" fill="#c9c2af"/>
<circle cx="704" cy="496" r="2" fill="#c9c2af"/>
<circle cx="704" cy="520" r="2" fill="#c9c2af"/>
<circle cx="704" cy="544" r="2" fill="#c9c2af"/>
<circle cx="704" cy="568" r="2" fill="#c9c2af"/>
<circle cx="704" cy="592" r="2" fill="#c9c2af"/>
<circle cx="704" cy="616" r="2" fill="#c9c2af"/>
<circle cx="704" cy="640" r="2" fill="#c9c2af"/>
<circle cx="704" cy="664" r="2" fill="#c9c2af"/>
<circle cx="704" cy="688" r="2" fill="#c9c2af"/>
<circle cx="704" cy="712" r="2" fill="#c9c2af"/>
<circle cx="704" cy="736" r="2" fill="#c9c2af"/>
<circle cx="704" cy="760" r="2" fill="#c9c2af"/>
<circle cx="704" cy="784" r="2" fill="#c9c2af"/>
<circle cx="704" cy="808" r="2" fill="#c9c2af"/>
<circle cx="704" cy="832" r="2" fill="#c9c2af"/>
<circle cx="728" cy="304" r="2" fill="#c9c2af"/>
<circle cx="728" cy="328" r="2" fill="#c9c2af"/>
<circle cx="728" cy="352" r="2" fill="#c9c2af"/>
<circle cx="728" cy="376" r="2" fill="#c9c2af"/>
<circle cx="728" cy="400" r="2" fill="#c9c2af"/>
<circle cx="728" cy="424" r="2" fill="#c9c2af"/>
<circle cx="728" cy="448" r="2" fill="#c9c2af"/>
<circle cx="728" cy="472" r="2" fill="#c9c2af"/>
<circle cx="728" cy="496" r="2" fill="#c9c2af"/>
<circle cx="728" cy="520" r="2" fill="#c9c2af"/>
<circle cx="728" cy="544" r="2" fill="#c9c2af"/>
<circle cx="728" cy="568" r="2" fill="#c9c2af"/>
<circle cx="728" cy="592" r="2" fill="#c9c2af"/>
<circle cx="728" cy="616" r="2" fill="#c9c2af"/>
<circle cx="728" cy="640" r="2" fill="#c9c2af"/>
<circle cx="728" cy="664" r="2" fill="#c9c2af"/>
<circle cx="728" cy="688" r="2" fill="#c9c2af"/>
<circle cx="728" cy="712" r="2" fill="#c9c2af"/>
<circle cx="728" cy="736" r="2" fill="#c9c2af"/>
<circle cx="728" cy="760" r="2" fill="#c9c2af"/>
<circle cx="728" cy="784" r="2" fill="#c9c2af"/>
<circle cx="728" cy="808" r="2" fill="#c9c2af"/>
<circle cx="728" cy="832" r="2" fill="#c9c2af"/>
<circle cx="752" cy="304" r="2" fill="#c9c2af"/>
<circle cx="752" cy="328" r="2" fill="#c9c2af"/>
<circle cx="752" cy="352" r="2" fill="#c9c2af"/>
<circle cx="752" cy="376" r="2" fill="#c9c2af"/>
<circle cx="752" cy="400" r="2" fill="#c9c2af"/>
<circle cx="752" cy="424" r="2" fill="#c9c2af"/>
<circle cx="752" cy="448" r="2" fill="#c9c2af"/>
<circle cx="752" cy="472" r="2" fill="#c9c2af"/>
<circle cx="752" cy="496" r="2" fill="#c9c2af"/>
<circle cx="752" cy="520" r="2" fill="#c9c2af"/>
<circle cx="752" cy="544" r="2" fill="#c9c2af"/>
<circle cx="752" cy="568" r="2" fill="#c9c2af"/>
<circle cx="752" cy="592" r="2" fill="#c9c2af"/>
<circle cx="752" cy="616" r="2" fill="#c9c2af"/>
<circle cx="752" cy="640" r="2" fill="#c9c2af"/>
<circle cx="752" cy="664" r="2" fill="#c9c2af"/>
<circle cx="752" cy="688" r="2" fill="#c9c2af"/>
<circle cx="752" cy="712" r="2" fill="#c9c2af"/>
<circle cx="752" cy="736" r="2" fill="#c9c2af"/>
<circle cx="752" cy="760" r="2" fill="#c9c2af"/>
<circle cx="752" cy="784" r="2" fill="#c9c2af"/>
<circle cx="752" cy="808" r="2" fill="#c9c2af"/>
<circle cx="752" cy="832" r="2" fill="#c9c2af"/>
<circle cx="776" cy="304" r="2" fill="#c9c2af"/>
<circle cx="776" cy="328" r="2" fill="#c9c2af"/>
<circle cx="776" cy="352" r="2" fill="#c9c2af"/>
<circle cx="776" cy="376" r="2" fill="#c9c2af"/>
<circle cx="776" cy="400" r="2" fill="#c9c2af"/>
<circle cx="776" cy="424" r="2" fill="#c9c2af"/>
<circle cx="776" cy="448" r="2" fill="#c9c2af"/>
<circle cx="776" cy="472" r="2" fill="#c9c2af"/>
<circle cx="776" cy="496" r="2" fill="#c9c2af"/>
<circle cx="776" cy="520" r="2" fill="#c9c2af"/>
<circle cx="776" cy="544" r="2" fill="#c9c2af"/>
<circle cx="776" cy="568" r="2" fill="#c9c2af"/>
<circle cx="776" cy="592" r="2" fill="#c9c2af"/>
<circle cx="776" cy="616" r="2" fill="#c9c2af"/>
<circle cx="776" cy="640" r="2" fill="#c9c2af"/>
<circle cx="776" cy="664" r="2" fill="#c9c2af"/>
<circle cx="776" cy="688" r="2" fill="#c9c2af"/>
<circle cx="776" cy="712" r="2" fill="#c9c2af"/>
<circle cx="776" cy="736" r="2" fill="#c9c2af"/>
<circle cx="776" cy="760" r="2" fill="#c9c2af"/>
<circle cx="776" cy="784" r="2" fill="#c9c2af"/>
<circle cx="776" cy="808" r="2" fill="#c9c2af"/>
<circle cx="776" cy="832" r="2" fill="#c9c2af"/>
<circle cx="800" cy="304" r="2" fill="#c9c2af"/>
<circle cx="800" cy="328" r="2" fill="#c9c2af"/>
<circle cx="800" cy="352" r="2" fill="#c9c2af"/>
<circle cx="800" cy="376" r="2" fill="#c9c2af"/>
<circle cx="800" cy="400" r="2" fill="#c9c2af"/>
<circle cx="800" cy="424" r="2" fill="#c9c2af"/>
<circle cx="800" cy="448" r="2" fill="#c9c2af"/>
<circle cx="800" cy="472" r="2" fill="#c9c2af"/>
<circle cx="800" cy="496" r="2" fill="#c9c2af"/>
<circle cx="800" cy="520" r="2" fill="#c9c2af"/>
<circle cx="800" cy="544" r="2" fill="#c9c2af"/>
<circle cx="800" cy="568" r="2" fill="#c9c2af"/>
<circle cx="800" cy="592" r="2" fill="#c9c2af"/>
<circle cx="800" cy="616" r="2" fill="#c9c2af"/>
<circle cx="800" cy="640" r="2" fill="#c9c2af"/>
<circle cx="800" cy="664" r="2" fill="#c9c2af"/>
<circle cx="800" cy="688" r="2" fill="#c9c2af"/>
<circle cx="800" cy="712" r="2" fill="#c9c2af"/>
<circle cx="800" cy="736" r="2" fill="#c9c2af"/>
<circle cx="800" cy="760" r="2" fill="#c9c2af"/>
<circle cx="800" cy="784" r="2" fill="#c9c2af"/>
<circle cx="800" cy="808" r="2" fill="#c9c2af"/>
<circle cx="800" cy="832" r="2" fill="#c9c2af"/>
<circle cx="824" cy="304" r="2" fill="#c9c2af"/>
<circle cx="824" cy="328" r="2" fill="#c9c2af"/>
<circle cx="824" cy="352" r="2" fill="#c9c2af"/>
<circle cx="824" cy="376" r="2" fill="#c9c2af"/>
<circle cx="824" cy="400" r="2" fill="#c9c2af"/>
<circle cx="824" cy="424" r="2" fill="#c9c2af"/>
<circle cx="824" cy="448" r="2" fill="#c9c2af"/>
<circle cx="824" cy="472" r="2" fill="#c9c2af"/>
<circle cx="824" cy="496" r="2" fill="#c9c2af"/>
<circle cx="824" cy="520" r="2" fill="#c9c2af"/>
<circle cx="824" cy="544" r="2" fill="#c9c2af"/>
<circle cx="824" cy="568" r="2" fill="#c9c2af"/>
<circle cx="824" cy="592" r="2" fill="#c9c2af"/>
<circle cx="824" cy="616" r="2" fill="#c9c2af"/>
<circle cx="824" cy="640" r="2" fill="#c9c2af"/>
<circle cx="824" cy="664" r="2" fill="#c9c2af"/>
<circle cx="824" cy="688" r="2" fill="#c9c2af"/>
<circle cx="824" cy="712" r="2" fill="#c9c2af"/>
<circle cx="824" cy="736" r="2" fill="#c9c2af"/>
<circle cx="824" cy="760" r="2" fill="#c9c2af"/>
<circle cx="824" cy="784" r="2" fill="#c9c2af"/>
<circle cx="824" cy="808" r="2" fill="#c9c2af"/>
<circle cx="824" cy="832" r="2" fill="#c9c2af"/>
<circle cx="848" cy="304" r="2" fill="#c9c2af"/>
<circle cx="848" cy="328" r="2" fill="#c9c2af"/>
<circle cx="848" cy="352" r="2" fill="#c9c2af"/>
<circle cx="848" cy="376" r="2" fill="#c9c2af"/>
<circle cx="848" cy="400" r="2" fill="#c9c2af"/>
<circle cx="848" cy="424" r="2" fill="#c9c2af"/>
<circle cx="848" cy="448" r="2" fill="#c9c2af"/>
<circle cx="848" cy="472" r="2" fill="#c9c2af"/>
<circle cx="848" cy="496" r="2" fill="#c9c2af"/>
<circle cx="848" cy="520" r="2" fill="#c9c2af"/>
<circle cx="848" cy="544" r="2" fill="#c9c2af"/>
<circle cx="848" cy="568" r="2" fill="#c9c2af"/>
<circle cx="848" cy="592" r="2" fill="#c9c2af"/>
<circle cx="848" cy="616" r="2" fill="#c9c2af"/>
<circle cx="848" cy="640" r="2" fill="#c9c2af"/>
<circle cx="848" cy="664" r="2" fill="#c9c2af"/>
<circle cx="848" cy="688" r="2" fill="#c9c2af"/>
<circle cx="848" cy="712" r="2" fill="#c9c2af"/>
<circle cx="848" cy="736" r="2" fill="#c9c2af"/>
<circle cx="848" cy="760" r="2" fill="#c9c2af"/>
<circle cx="848" cy="784" r="2" fill="#c9c2af"/>
<circle cx="848" cy="808" r="2" fill="#c9c2af"/>
<circle cx="848" cy="832" r="2" fill="#c9c2af"/>
<circle cx="872" cy="304" r="2" fill="#c9c2af"/>
<circle cx="872" cy="328" r="2" fill="#c9c2af"/>
<circle cx="872" cy="352" r="2" fill="#c9c2af"/>
<circle cx="872" cy="376" r="2" fill="#c9c2af"/>
<circle cx="872" cy="400" r="2" fill="#c9c2af"/>
<circle cx="872" cy="424" r="2" fill="#c9c2af"/>
<circle cx="872" cy="448" r="2" fill="#c9c2af"/>
<circle cx="872" cy="472" r="2" fill="#c9c2af"/>
<circle cx="872" cy="496" r="2" fill="#c9c2af"/>
<circle cx="872" cy="520" r="2" fill="#c9c2af"/>
<circle cx="872" cy="544" r="2" fill="#c9c2af"/>
<circle cx="872" cy="568" r="2" fill="#c9c2af"/>
<circle cx="872" cy="592" r="2" fill="#c9c2af"/>
<circle cx="872" cy="616" r="2" fill="#c9c2af"/>
<circle cx="872" cy="640" r="2" fill="#c9c2af"/>
<circle cx="872" cy="664" r="2" fill="#c9c2af"/>
<circle cx="872" cy="688" r="2" fill="#c9c2af"/>
<circle cx="872" cy="712" r="2" fill="#c9c2af"/>
<circle cx="872" cy="736" r="2" fill="#c9c2af"/>
<circle cx="872" cy="760" r="2" fill="#c9c2af"/>
<circle cx="872" cy="784" r="2" fill="#c9c2af"/>
<circle cx="872" cy="808" r="2" fill="#c9c2af"/>
<circle cx="872" cy="832" r="2" fill="#c9c2af"/>
<circle cx="896" cy="304" r="2" fill="#c9c2af"/>
<circle cx="896" cy="328" r="2" fill="#c9c2af"/>
<circle cx="896" cy="352" r="2" fill="#c9c2af"/>
<circle cx="896" cy="376" r="2" fill="#c9c2af"/>
<circle cx="896" cy="400" r="2" fill="#c9c2af"/>
<circle cx="896" cy="424" r="2" fill="#c9c2af"/>
<circle cx="896" cy="448" r="2" fill="#c9c2af"/>
<circle cx="896" cy="472" r="2" fill="#c9c2af"/>
<circle cx="896" cy="496" r="2" fill="#c9c2af"/>
<circle cx="896" cy="520" r="2" fill="#c9c2af"/>
<circle cx="896" cy="544" r="2" fill="#c9c2af"/>
<circle cx="896" cy="568" r="2" fill="#c9c2af"/>
<circle cx="896" cy="592" r="2" fill="#c9c2af"/>
<circle cx="896" cy="616" r="2" fill="#c9c2af"/>
<circle cx="896" cy="640" r="2" fill="#c9c2af"/>
<circle cx="896" cy="664" r="2" fill="#c9c2af"/>
<circle cx="896" cy="688" r="2" fill="#c9c2af"/>
<circle cx="896" cy="712" r="2" fill="#c9c2af"/>
<circle cx="896" cy="736" r="2" fill="#c9c2af"/>
<circle cx="896" cy="760" r="2" fill="#c9c2af"/>
<circle cx="896" cy="784" r="2" fill="#c9c2af"/>
<circle cx="896" cy="808" r="2" fill="#c9c2af"/>
<circle cx="896" cy="832" r="2" fill="#c9c2af"/>
<circle cx="920" cy="304" r="2" fill="#c9c2af"/>
<circle cx="920" cy="328" r="2" fill="#c9c2af"/>
<circle cx="920" cy="352" r="2" fill="#c9c2af"/>
<circle cx="920" cy="376" r="2" fill="#c9c2af"/>
<circle cx="920" cy="400" r="2" fill="#c9c2af"/>
<circle cx="920" cy="424" r="2" fill="#c9c2af"/>
<circle cx="920" cy="448" r="2" fill="#c9c2af"/>
<circle cx="920" cy="472" r="2" fill="#c9c2af"/>
<circle cx="920" cy="496" r="2" fill="#c9c2af"/>
<circle cx="920" cy="520" r="2" fill="#c9c2af"/>
<circle cx="920" cy="544" r="2" fill="#c9c2af"/>
<circle cx="920" cy="568" r="2" fill="#c9c2af"/>
<circle cx="920" cy="592" r="2" fill="#c9c2af"/>
<circle cx="920" cy="616" r="2" fill="#c9c2af"/>
<circle cx="920" cy="640" r="2" fill="#c9c2af"/>
<circle cx="920" cy="664" r="2" fill="#c9c2af"/>
<circle cx="920" cy="688" r="2" fill="#c9c2af"/>
<circle cx="920" cy="712" r="2" fill="#c9c2af"/>
<circle cx="920" cy="736" r="2" fill="#c9c2af"/>
<circle cx="920" cy="760" r="2" fill="#c9c2af"/>
<circle cx="920" cy="784" r="2" fill="#c9c2af"/>
<circle cx="920" cy="808" r="2" fill="#c9c2af"/>
<circle cx="920" cy="832" r="2" fill="#c9c2af"/>
<circle cx="944" cy="304" r="2" fill="#c9c2af"/>
<circle cx="944" cy="328" r="2" fill="#c9c2af"/>
<circle cx="944" cy="352" r="2" fill="#c9c2af"/>
<circle cx="944" cy="376" r="2" fill="#c9c2af"/>
<circle cx="944" cy="400" r="2" fill="#c9c2af"/>
<circle cx="944" cy="424" r="2" fill="#c9c2af"/>
<circle cx="944" cy="448" r="2" fill="#c9c2af"/>
<circle cx="944" cy="472" r="2" fill="#c9c2af"/>
<circle cx="944" cy="496" r="2" fill="#c9c2af"/>
<circle cx="944" cy="520" r="2" fill="#c9c2af"/>
<circle cx="944" cy="544" r="2" fill="#c9c2af"/>
<circle cx="944" cy="568" r="2" fill="#c9c2af"/>
<circle cx="944" cy="592" r="2" fill="#c9c2af"/>
<circle cx="944" cy="616" r="2" fill="#c9c2af"/>
<circle cx="944" cy="640" r="2" fill="#c9c2af"/>
<circle cx="944" cy="664" r="2" fill="#c9c2af"/>
<circle cx="944" cy="688" r="2" fill="#c9c2af"/>
<circle cx="944" cy="712" r="2" fill="#c9c2af"/>
<circle cx="944" cy="736" r="2" fill="#c9c2af"/>
<circle cx="944" cy="760" r="2" fill="#c9c2af"/>
<circle cx="944" cy="784" r="2" fill="#c9c2af"/>
<circle cx="944" cy="808" r="2" fill="#c9c2af"/>
<circle cx="944" cy="832" r="2" fill="#c9c2af"/>
<circle cx="968" cy="304" r="2" fill="#c9c2af"/>
<circle cx="968" cy="328" r="2" fill="#c9c2af"/>
<circle cx="968" cy="352" r="2" fill="#c9c2af"/>
<circle cx="968" cy="376" r="2" fill="#c9c2af"/>
<circle cx="968" cy="400" r="2" fill="#c9c2af"/>
<circle cx="968" cy="424" r="2" fill="#c9c2af"/>
<circle cx="968" cy="448" r="2" fill="#c9c2af"/>
<circle cx="968" cy="472" r="2" fill="#c9c2af"/>
<circle cx="968" cy="496" r="2" fill="#c9c2af"/>
<circle cx="968" cy="520" r="2" fill="#c9c2af"/>
<circle cx="968" cy="544" r="2" fill="#c9c2af"/>
<circle cx="968" cy="568" r="2" fill="#c9c2af"/>
<circle cx="968" cy="592" r="2" fill="#c9c2af"/>
<circle cx="968" cy="616" r="2" fill="#c9c2af"/>
<circle cx="968" cy="640" r="2" fill="#c9c2af"/>
<circle cx="968" cy="664" r="2" fill="#c9c2af"/>
<circle cx="968" cy="688" r="2" fill="#c9c2af"/>
<circle cx="968" cy="712" r="2" fill="#c9c2af"/>
<circle cx="968" cy="736" r="2" fill="#c9c2af"/>
<circle cx="968" cy="760" r="2" fill="#c9c2af"/>
<circle cx="968" cy="784" r="2" fill="#c9c2af"/>
<circle cx="968" cy="808" r="2" fill="#c9c2af"/>
<circle cx="968" cy="832" r="2" fill="#c9c2af"/>
<circle cx="992" cy="304" r="2" fill="#c9c2af"/>
<circle cx="992" cy="328" r="2" fill="#c9c2af"/>
<circle cx="992" cy="352" r="2" fill="#c9c2af"/>
<circle cx="992" cy="376" r="2" fill="#c9c2af"/>
<circle cx="992" cy="400" r="2" fill="#c9c2af"/>
<circle cx="992" cy="424" r="2" fill="#c9c2af"/>
<circle cx="992" cy="448" r="2" fill="#c9c2af"/>
<circle cx="992" cy="472" r="2" fill="#c9c2af"/>
<circle cx="992" cy="496" r="2" fill="#c9c2af"/>
<circle cx="992" cy="520" r="2" fill="#c9c2af"/>
<circle cx="992" cy="544" r="2" fill="#c9c2af"/>
<circle cx="992" cy="568" r="2" fill="#c9c2af"/>
<circle cx="992" cy="592" r="2" fill="#c9c2af"/>
<circle cx="992" cy="616" r="2" fill="#c9c2af"/>
<circle cx="992" cy="640" r="2" fill="#c9c2af"/>
<circle cx="992" cy="664" r="2" fill="#c9c2af"/>
<circle cx="992" cy="688" r="2" fill="#c9c2af"/>
<circle cx="992" cy="712" r="2" fill="#c9c2af"/>
<circle cx="992" cy="736" r="2" fill="#c9c2af"/>
<circle cx="992" cy="760" r="2" fill="#c9c2af"/>
<circle cx="992" cy="784" r="2" fill="#c9c2af"/>
<circle cx="992" cy="808" r="2" fill="#c9c2af"/>
<circle cx="992" cy="832" r="2" fill="#c9c2af"/>
<circle cx="1016" cy="304" r="2" fill="#c9c2af"/>
<circle cx="1016" cy="328" r="2" fill="#c9c2af"/>
<circle cx="1016" cy="352" r="2" fill="#c9c2af"/>
<circle cx="1016" cy="376" r="2" fill="#c9c2af"/>
<circle cx="1016" cy="400" r="2" fill="#c9c2af"/>
<circle cx="1016" cy="424" r="2" fill="#c9c2af"/>
<circle cx="1016" cy="448" r="2" fill="#c9c2af"/>
<circle cx="1016" cy="472" r="2" fill="#c9c2af"/>
<circle cx="1016" cy="496" r="2" fill="#c9c2af"/>
<circle cx="1016" cy="520" r="2" fill="#c9c2af"/>
<circle cx="1016" cy="544" r="2" fill="#c9c2af"/>
<circle cx="1016" cy="568" r="2" fill="#c9c2af"/>
<circle cx="1016" cy="592" r="2" fill="#c9c2af"/>
<circle cx="1016" cy="616" r="2" fill="#c9c2af"/>
<circle cx="1016" cy="640" r="2" fill="#c9c2af"/>
<circle cx="1016" cy="664" r="2" fill="#c9c2af"/>
<circle cx="1016" cy="688" r="2" fill="#c9c2af"/>
<circle cx="1016" cy="712" r="2" fill="#c9c2af"/>
<circle cx="1016" cy="736" r="2" fill="#c9c2af"/>
<circle cx="1016" cy="760" r="2" fill="#c9c2af"/>
<circle cx="1016" cy="784" r="2" fill="#c9c2af"/>
<circle cx="1016" cy="808" r="2" fill="#c9c2af"/>
<circle cx="1016" cy="832" r="2" fill="#c9c2af"/>
<circle cx="1040" cy="304" r="2" fill="#c9c2af"/>
<circle cx="1040" cy="328" r="2" fill="#c9c2af"/>
<circle cx="1040" cy="352" r="2" fill="#c9c2af"/>
<circle cx="1040" cy="376" r="2" fill="#c9c2af"/>
<circle cx="1040" cy="400" r="2" fill="#c9c2af"/>
<circle cx="1040" cy="424" r="2" fill="#c9c2af"/>
<circle cx="1040" cy="448" r="2" fill="#c9c2af"/>
<circle cx="1040" cy="472" r="2" fill="#c9c2af"/>
<circle cx="1040" cy="496" r="2" fill="#c9c2af"/>
<circle cx="1040" cy="520" r="2" fill="#c9c2af"/>
<circle cx="1040" cy="544" r="2" fill="#c9c2af"/>
<circle cx="1040" cy="568" r="2" fill="#c9c2af"/>
<circle cx="1040" cy="592" r="2" fill="#c9c2af"/>
<circle cx="1040" cy="616" r="2" fill="#c9c2af"/>
<circle cx="1040" cy="640" r="2" fill="#c9c2af"/>
<circle cx="1040" cy="664" r="2" fill="#c9c2af"/>
<circle cx="1040" cy="688" r="2" fill="#c9c2af"/>
<circle cx="1040" cy="712" r="2" fill="#c9c2af"/>
<circle cx="1040" cy="736" r="2" fill="#c9c2af"/>
<circle cx="1040" cy="760" r="2" fill="#c9c2af"/>
<circle cx="1040" cy="784" r="2" fill="#c9c2af"/>
<circle cx="1040" cy="808" r="2" fill="#c9c2af"/>
<circle cx="1040" cy="832" r="2" fill="#c9c2af"/>
<circle cx="1064" cy="304" r="2" fill="#c9c2af"/>
<circle cx="1064" cy="328" r="2" fill="#c9c2af"/>
<circle cx="1064" cy="352" r="2" fill="#c9c2af"/>
<circle cx="1064" cy="376" r="2" fill="#c9c2af"/>
<circle cx="1064" cy="400" r="2" fill="#c9c2af"/>
<circle cx="1064" cy="424" r="2" fill="#c9c2af"/>
<circle cx="1064" cy="448" r="2" fill="#c9c2af"/>
<circle cx="1064" cy="472" r="2" fill="#c9c2af"/>
<circle cx="1064" cy="496" r="2" fill="#c9c2af"/>
<circle cx="1064" cy="520" r="2" fill="#c9c2af"/>
<circle cx="1064" cy="544" r="2" fill="#c9c2af"/>
<circle cx="1064" cy="568" r="2" fill="#c9c2af"/>
<circle cx="1064" cy="592" r="2" fill="#c9c2af"/>
<circle cx="1064" cy="616" r="2" fill="#c9c2af"/>
<circle cx="1064" cy="640" r="2" fill="#c9c2af"/>
<circle cx="1064" cy="664" r="2" fill="#c9c2af"/>
<circle cx="1064" cy="688" r="2" fill="#c9c2af"/>
<circle cx="1064" cy="712" r="2" fill="#c9c2af"/>
<circle cx="1064" cy="736" r="2" fill="#c9c2af"/>
<circle cx="1064" cy="760" r="2" fill="#c9c2af"/>
<circle cx="1064" cy="784" r="2" fill="#c9c2af"/>
<circle cx="1064" cy="808" r="2" fill="#c9c2af"/>
<circle cx="1064" cy="832" r="2" fill="#c9c2af"/>
<circle cx="1088" cy="304" r="2" fill="#c9c2af"/>
<circle cx="1088" cy="328" r="2" fill="#c9c2af"/>
<circle cx="1088" cy="352" r="2" fill="#c9c2af"/>
<circle cx="1088" cy="376" r="2" fill="#c9c2af"/>
<circle cx="1088" cy="400" r="2" fill="#c9c2af"/>
<circle cx="1088" cy="424" r="2" fill="#c9c2af"/>
<circle cx="1088" cy="448" r="2" fill="#c9c2af"/>
<circle cx="1088" cy="472" r="2" fill="#c9c2af"/>
<circle cx="1088" cy="496" r="2" fill="#c9c2af"/>
<circle cx="1088" cy="520" r="2" fill="#c9c2af"/>
<circle cx="1088" cy="544" r="2" fill="#c9c2af"/>
<circle cx="1088" cy="568" r="2" fill="#c9c2af"/>
<circle cx="1088" cy="592" r="2" fill="#c9c2af"/>
<circle cx="1088" cy="616" r="2" fill="#c9c2af"/>
<circle cx="1088" cy="640" r="2" fill="#c9c2af"/>
<circle cx="1088" cy="664" r="2" fill="#c9c2af"/>
<circle cx="1088" cy="688" r="2" fill="#c9c2af"/>
<circle cx="1088" cy="712" r="2" fill="#c9c2af"/>
<circle cx="1088" cy="736" r="2" fill="#c9c2af"/>
<circle cx="1088" cy="760" r="2" fill="#c9c2af"/>
<circle cx="1088" cy="784" r="2" fill="#c9c2af"/>
<circle cx="1088" cy="808" r="2" fill="#c9c2af"/>
<circle cx="1088" cy="832" r="2" fill="#c9c2af"/>
<circle cx="1112" cy="304" r="2" fill="#c9c2af"/>
<circle cx="1112" cy="328" r="2" fill="#c9c2af"/>
<circle cx="1112" cy="352" r="2" fill="#c9c2af"/>
<circle cx="1112" cy="376" r="2" fill="#c9c2af"/>
<circle cx="1112" cy="400" r="2" fill="#c9c2af"/>
<circle cx="1112" cy="424" r="2" fill="#c9c2af"/>
<circle cx="1112" cy="448" r="2" fill="#c9c2af"/>
<circle cx="1112" cy="472" r="2" fill="#c9c2af"/>
<circle cx="1112" cy="496" r="2" fill="#c9c2af"/>
<circle cx="1112" cy="520" r="2" fill="#c9c2af"/>
<circle cx="1112" cy="544" r="2" fill="#c9c2af"/>
<circle cx="1112" cy="568" r="2" fill="#c9c2af"/>
<circle cx="1112" cy="592" r="2" fill="#c9c2af"/>
<circle cx="1112" cy="616" r="2" fill="#c9c2af"/>
<circle cx="1112" cy="640" r="2" fill="#c9c2af"/>
<circle cx="1112" cy="664" r="2" fill="#c9c2af"/>
<circle cx="1112" cy="688" r="2" fill="#c9c2af"/>
<circle cx="1112" cy="712" r="2" fill="#c9c2af"/>
<circle cx="1112" cy="736" r="2" fill="#c9c2af"/>
<circle cx="1112" cy="760" r="2" fill="#c9c2af"/>
<circle cx="1112" cy="784" r="2" fill="#c9c2af"/>
<circle cx="1112" cy="808" r="2" fill="#c9c2af"/>
<circle cx="1112" cy="832" r="2" fill="#c9c2af"/>
<circle cx="1136" cy="304" r="2" fill="#c9c2af"/>
<circle cx="1136" cy="328" r="2" fill="#c9c2af"/>
<circle cx="1136" cy="352" r="2" fill="#c9c2af"/>
<circle cx="1136" cy="376" r="2" fill="#c9c2af"/>
<circle cx="1136" cy="400" r="2" fill="#c9c2af"/>
<circle cx="1136" cy="424" r="2" fill="#c9c2af"/>
<circle cx="1136" cy="448" r="2" fill="#c9c2af"/>
<circle cx="1136" cy="472" r="2" fill="#c9c2af"/>
<circle cx="1136" cy="496" r="2" fill="#c9c2af"/>
<circle cx="1136" cy="520" r="2" fill="#c9c2af"/>
<circle cx="1136" cy="544" r="2" fill="#c9c2af"/>
<circle cx="1136" cy="568" r="2" fill="#c9c2af"/>
<circle cx="1136" cy="592" r="2" fill="#c9c2af"/>
<circle cx="1136" cy="616" r="2" fill="#c9c2af"/>
<circle cx="1136" cy="640" r="2" fill="#c9c2af"/>
<circle cx="1136" cy="664" r="2" fill="#c9c2af"/>
<circle cx="1136" cy="688" r="2" fill="#c9c2af"/>
<circle cx="1136" cy="712" r="2" fill="#c9c2af"/>
<circle cx="1136" cy="736" r="2" fill="#c9c2af"/>
<circle cx="1136" cy="760" r="2" fill="#c9c2af"/>
<circle cx="1136" cy="784" r="2" fill="#c9c2af"/>
<circle cx="1136" cy="808" r="2" fill="#c9c2af"/>
<circle cx="1136" cy="832" r="2" fill="#c9c2af"/>
<circle cx="1160" cy="304" r="2" fill="#c9c2af"/>
<circle cx="1160" cy="328" r="2" fill="#c9c2af"/>
<circle cx="1160" cy="352" r="2" fill="#c9c2af"/>
<circle cx="1160" cy="376" r="2" fill="#c9c2af"/>
<circle cx="1160" cy="400" r="2" fill="#c9c2af"/>
<circle cx="1160" cy="424" r="2" fill="#c9c2af"/>
<circle cx="1160" cy="448" r="2" fill="#c9c2af"/>
<circle cx="1160" cy="472" r="2" fill="#c9c2af"/>
<circle cx="1160" cy="496" r="2" fill="#c9c2af"/>
<circle cx="1160" cy="520" r="2" fill="#c9c2af"/>
<circle cx="1160" cy="544" r="2" fill="#c9c2af"/>
<circle cx="1160" cy="568" r="2" fill="#c9c2af"/>
<circle cx="1160" cy="592" r="2" fill="#c9c2af"/>
<circle cx="1160" cy="616" r="2" fill="#c9c2af"/>
<circle cx="1160" cy="640" r="2" fill="#c9c2af"/>
<circle cx="1160" cy="664" r="2" fill="#c9c2af"/>
<circle cx="1160" cy="688" r="2" fill="#c9c2af"/>
<circle cx="1160" cy="712" r="2" fill="#c9c2af"/>
<circle cx="1160" cy="736" r="2" fill="#c9c2af"/>
<circle cx="1160" cy="760" r="2" fill="#c9c2af"/>
<circle cx="1160" cy="784" r="2" fill="#c9c2af"/>
<circle cx="1160" cy="808" r="2" fill="#c9c2af"/>
<circle cx="1160" cy="832" r="2" fill="#c9c2af"/>
<circle cx="1184" cy="304" r="2" fill="#c9c2af"/>
<circle cx="1184" cy="328" r="2" fill="#c9c2af"/>
<circle cx="1184" cy="352" r="2" fill="#c9c2af"/>
<circle cx="1184" cy="376" r="2" fill="#c9c2af"/>
<circle cx="1184" cy="400" r="2" fill="#c9c2af"/>
<circle cx="1184" cy="424" r="2" fill="#c9c2af"/>
<circle cx="1184" cy="448" r="2" fill="#c9c2af"/>
<circle cx="1184" cy="472" r="2" fill="#c9c2af"/>
<circle cx="1184" cy="496" r="2" fill="#c9c2af"/>
<circle cx="1184" cy="520" r="2" fill="#c9c2af"/>
<circle cx="1184" cy="544" r="2" fill="#c9c2af"/>
<circle cx="1184" cy="568" r="2" fill="#c9c2af"/>
<circle cx="1184" cy="592" r="2" fill="#c9c2af"/>
<circle cx="1184" cy="616" r="2" fill="#c9c2af"/>
<circle cx="1184" cy="640" r="2" fill="#c9c2af"/>
<circle cx="1184" cy="664" r="2" fill="#c9c2af"/>
<circle cx="1184" cy="688" r="2" fill="#c9c2af"/>
<circle cx="1184" cy="712" r="2" fill="#c9c2af"/>
<circle cx="1184" cy="736" r="2" fill="#c9c2af"/>
<circle cx="1184" cy="760" r="2" fill="#c9c2af"/>
<circle cx="1184" cy="784" r="2" fill="#c9c2af"/>
<circle cx="1184" cy="808" r="2" fill="#c9c2af"/>
<circle cx="1184" cy="832" r="2" fill="#c9c2af"/>
<circle cx="1208" cy="304" r="2" fill="#c9c2af"/>
<circle cx="1208" cy="328" r="2" fill="#c9c2af"/>
<circle cx="1208" cy="352" r="2" fill="#c9c2af"/>
<circle cx="1208" cy="376" r="2" fill="#c9c2af"/>
<circle cx="1208" cy="400" r="2" fill="#c9c2af"/>
<circle cx="1208" cy="424" r="2" fill="#c9c2af"/>
<circle cx="1208" cy="448" r="2" fill="#c9c2af"/>
<circle cx="1208" cy="472" r="2" fill="#c9c2af"/>
<circle cx="1208" cy="496" r="2" fill="#c9c2af"/>
<circle cx="1208" cy="520" r="2" fill="#c9c2af"/>
<circle cx="1208" cy="544" r="2" fill="#c9c2af"/>
<circle cx="1208" cy="568" r="2" fill="#c9c2af"/>
<circle cx="1208" cy="592" r="2" fill="#c9c2af"/>
<circle cx="1208" cy="616" r="2" fill="#c9c2af"/>
<circle cx="1208" cy="640" r="2" fill="#c9c2af"/>
<circle cx="1208" cy="664" r="2" fill="#c9c2af"/>
<circle cx="1208" cy="688" r="2" fill="#c9c2af"/>
<circle cx="1208" cy="712" r="2" fill="#c9c2af"/>
<circle cx="1208" cy="736" r="2" fill="#c9c2af"/>
<circle cx="1208" cy="760" r="2" fill="#c9c2af"/>
<circle cx="1208" cy="784" r="2" fill="#c9c2af"/>
<circle cx="1208" cy="808" r="2" fill="#c9c2af"/>
<circle cx="1208" cy="832" r="2" fill="#c9c2af"/>
<circle cx="1232" cy="304" r="2" fill="#c9c2af"/>
<circle cx="1232" cy="328" r="2" fill="#c9c2af"/>
<circle cx="1232" cy="352" r="2" fill="#c9c2af"/>
<circle cx="1232" cy="376" r="2" fill="#c9c2af"/>
<circle cx="1232" cy="400" r="2" fill="#c9c2af"/>
<circle cx="1232" cy="424" r="2" fill="#c9c2af"/>
<circle cx="1232" cy="448" r="2" fill="#c9c2af"/>
<circle cx="1232" cy="472" r="2" fill="#c9c2af"/>
<circle cx="1232" cy="496" r="2" fill="#c9c2af"/>
<circle cx="1232" cy="520" r="2" fill="#c9c2af"/>
<circle cx="1232" cy="544" r="2" fill="#c9c2af"/>
<circle cx="1232" cy="568" r="2" fill="#c9c2af"/>
<circle cx="1232" cy="592" r="2" fill="#c9c2af"/>
<circle cx="1232" cy="616" r="2" fill="#c9c2af"/>
<circle cx="1232" cy="640" r="2" fill="#c9c2af"/>
<circle cx="1232" cy="664" r="2" fill="#c9c2af"/>
<circle cx="1232" cy="688" r="2" fill="#c9c2af"/>
<circle cx="1232" cy="712" r="2" fill="#c9c2af"/>
<circle cx="1232" cy="736" r="2" fill="#c9c2af"/>
<circle cx="1232" cy="760" r="2" fill="#c9c2af"/>
<circle cx="1232" cy="784" r="2" fill="#c9c2af"/>
<circle cx="1232" cy="808" r="2" fill="#c9c2af"/>
<circle cx="1232" cy="832" r="2" fill="#c9c2af"/>
<circle cx="1256" cy="304" r="2" fill="#c9c2af"/>
<circle cx="1256" cy="328" r="2" fill="#c9c2af"/>
<circle cx="1256" cy="352" r="2" fill="#c9c2af"/>
<circle cx="1256" cy="376" r="2" fill="#c9c2af"/>
<circle cx="1256" cy="400" r="2" fill="#c9c2af"/>
<circle cx="1256" cy="424" r="2" fill="#c9c2af"/>
<circle cx="1256" cy="448" r="2" fill="#c9c2af"/>
<circle cx="1256" cy="472" r="2" fill="#c9c2af"/>
<circle cx="1256" cy="496" r="2" fill="#c9c2af"/>
<circle cx="1256" cy="520" r="2" fill="#c9c2af"/>
<circle cx="1256" cy="544" r="2" fill="#c9c2af"/>
<circle cx="1256" cy="568" r="2" fill="#c9c2af"/>
<circle cx="1256" cy="592" r="2" fill="#c9c2af"/>
<circle cx="1256" cy="616" r="2" fill="#c9c2af"/>
<circle cx="1256" cy="640" r="2" fill="#c9c2af"/>
<circle cx="1256" cy="664" r="2" fill="#c9c2af"/>
<circle cx="1256" cy="688" r="2" fill="#c9c2af"/>
<circle cx="1256" cy="712" r="2" fill="#c9c2af"/>
<circle cx="1256" cy="736" r="2" fill="#c9c2af"/>
<circle cx="1256" cy="760" r="2" fill="#c9c2af"/>
<circle cx="1256" cy="784" r="2" fill="#c9c2af"/>
<circle cx="1256" cy="808" r="2" fill="#c9c2af"/>
<circle cx="1256" cy="832" r="2" fill="#c9c2af"/>
<circle cx="1280" cy="304" r="2" fill="#c9c2af"/>
<circle cx="1280" cy="328" r="2" fill="#c9c2af"/>
<circle cx="1280" cy="352" r="2" fill="#c9c2af"/>
<circle cx="1280" cy="376" r="2" fill="#c9c2af"/>
<circle cx="1280" cy="400" r="2" fill="#c9c2af"/>
<circle cx="1280" cy="424" r="2" fill="#c9c2af"/>
<circle cx="1280" cy="448" r="2" fill="#c9c2af"/>
<circle cx="1280" cy="472" r="2" fill="#c9c2af"/>
<circle cx="1280" cy="496" r="2" fill="#c9c2af"/>
<circle cx="1280" cy="520" r="2" fill="#c9c2af"/>
<circle cx="1280" cy="544" r="2" fill="#c9c2af"/>
<circle cx="1280" cy="568" r="2" fill="#c9c2af"/>
<circle cx="1280" cy="592" r="2" fill="#c9c2af"/>
<circle cx="1280" cy="616" r="2" fill="#c9c2af"/>
<circle cx="1280" cy="640" r="2" fill="#c9c2af"/>
<circle cx="1280" cy="664" r="2" fill="#c9c2af"/>
<circle cx="1280" cy="688" r="2" fill="#c9c2af"/>
<circle cx="1280" cy="712" r="2" fill="#c9c2af"/>
<circle cx="1280" cy="736" r="2" fill="#c9c2af"/>
<circle cx="1280" cy="760" r="2" fill="#c9c2af"/>
<circle cx="1280" cy="784" r="2" fill="#c9c2af"/>
<circle cx="1280" cy="808" r="2" fill="#c9c2af"/>
<circle cx="1280" cy="832" r="2" fill="#c9c2af"/>
<text x="930" y="560" font-size="13" fill="#6d7669" text-anchor="middle" font-family="Arial, sans-serif" opacity="0.85">Punkt-zu-Punkt-Verdrahtung, keine feste Form nötig</text>
<line x1="590" y1="320" x2="1270" y2="320" stroke="#33362f" stroke-width="4"/>
<text x="930" y="312" font-size="11.5" fill="#33362f" text-anchor="middle" font-family="ui-monospace, monospace" font-weight="700">gemeinsame GND-Schiene</text>
<line x1="590" y1="342" x2="1270" y2="342" stroke="#b5732a" stroke-width="4"/>
<text x="930" y="360" font-size="11.5" fill="#b5732a" text-anchor="middle" font-family="ui-monospace, monospace" font-weight="700">gemeinsame 3.3V-Schiene</text>
<rect x="800.0" y="150" width="260" height="60" rx="10" fill="#e3e9ed" stroke="#4c6478" stroke-width="2"/>
<text x="930" y="174" font-size="15" font-weight="700" fill="#4c6478" text-anchor="middle" font-family="Arial, sans-serif">2x20-Buchsenleiste (IDC)</text>
<text x="930" y="192" font-size="11.5" fill="#6d7669" text-anchor="middle" font-family="Arial, sans-serif">Standard-40-Pin-Flachbandkabel</text>
<line x1="930.0" y1="210" x2="930.0" y2="280" stroke="#4c6478" stroke-width="2.4" stroke-dasharray="6 5"/>
<text x="1080.0" y="249.0" font-size="12.5" fill="#4c6478" text-anchor="middle" font-family="ui-monospace, monospace" font-weight="700" transform="rotate(0 1080.0 249.0)">zum Pi + HiFiBerry (Pass-Through-Header)</text>
<rect x="240" y="320" width="250" height="70" rx="10" fill="#ffffff" stroke="#2f6f4e" stroke-width="2"/>
<text x="365" y="344" font-size="15" font-weight="700" fill="#2f6f4e" text-anchor="middle" font-family="Arial, sans-serif">RC522 RFID (7-pol.)</text>
<text x="365" y="362" font-size="11.5" fill="#6d7669" text-anchor="middle" font-family="Arial, sans-serif">SPI-Bus + SDA/CS + RST + 3.3V/GND</text>
<line x1="490" y1="355" x2="560" y2="355" stroke="#2f6f4e" stroke-width="2.4"/>
<text x="230" y="349" font-size="12.5" fill="#2f6f4e" text-anchor="end" font-family="ui-monospace, monospace" font-weight="700">Richtung oben - Auflage-</text>
<text x="230" y="367" font-size="12.5" fill="#2f6f4e" text-anchor="end" font-family="ui-monospace, monospace" font-weight="700">fläche für Chip/Figur</text>
<rect x="1370" y="320" width="260" height="70" rx="10" fill="#ffffff" stroke="#2e5f8a" stroke-width="2"/>
<text x="1500" y="344" font-size="15" font-weight="700" fill="#2e5f8a" text-anchor="middle" font-family="Arial, sans-serif">Display (8-pol.)</text>
<text x="1500" y="362" font-size="11.5" fill="#6d7669" text-anchor="middle" font-family="Arial, sans-serif">SPI-Bus + CS/DC/RST + 3.3V/GND</text>
<line x1="1300" y1="355" x2="1370" y2="355" stroke="#2e5f8a" stroke-width="2.4"/>
<rect x="1370" y="430" width="260" height="70" rx="10" fill="#ffffff" stroke="#2f6f4e" stroke-width="2"/>
<text x="1500" y="454" font-size="15" font-weight="700" fill="#2f6f4e" text-anchor="middle" font-family="Arial, sans-serif">Backlight-Transistor</text>
<text x="1500" y="472" font-size="11.5" fill="#6d7669" text-anchor="middle" font-family="Arial, sans-serif">GPIO13 -&gt; Basis/Gate</text>
<line x1="1300" y1="465" x2="1370" y2="465" stroke="#2f6f4e" stroke-width="2.4"/>
<line x1="1400" y1="390" x2="1400" y2="430" stroke="#2f6f4e" stroke-width="1.8" stroke-dasharray="4 4"/>
<rect x="1370" y="540" width="260" height="70" rx="10" fill="#ffffff" stroke="#2f6f4e" stroke-width="2"/>
<text x="1500" y="564" font-size="15" font-weight="700" fill="#2f6f4e" text-anchor="middle" font-family="Arial, sans-serif">Encoder Helligkeit</text>
<text x="1500" y="582" font-size="11.5" fill="#6d7669" text-anchor="middle" font-family="Arial, sans-serif">CLK/DT + 3.3V/GND</text>
<line x1="1300" y1="575" x2="1370" y2="575" stroke="#2f6f4e" stroke-width="2.4"/>
<text x="1650" y="406" font-size="12.5" fill="#2e5f8a" font-family="ui-monospace, monospace" font-weight="700">Richtung rechte Seite -</text>
<text x="1650" y="424" font-size="12.5" fill="#2e5f8a" font-family="ui-monospace, monospace" font-weight="700">Display + Helligkeits-</text>
<text x="1650" y="442" font-size="12.5" fill="#2e5f8a" font-family="ui-monospace, monospace" font-weight="700">Encoder sitzen zusammen</text>
<text x="1650" y="460" font-size="12.5" fill="#2e5f8a" font-family="ui-monospace, monospace" font-weight="700">dort, Transistor dazwischen</text>
<rect x="662.5" y="900" width="165" height="70" rx="10" fill="#ffffff" stroke="#2f6f4e" stroke-width="2"/>
<text x="745" y="924" font-size="15" font-weight="700" fill="#2f6f4e" text-anchor="middle" font-family="Arial, sans-serif">Taster „Weiter“</text>
<text x="745" y="942" font-size="11.5" fill="#6d7669" text-anchor="middle" font-family="Arial, sans-serif">GPIO5 + GND</text>
<line x1="745.0" y1="840" x2="745.0" y2="900" stroke="#2f6f4e" stroke-width="2.2"/>
<rect x="847.5" y="900" width="165" height="70" rx="10" fill="#ffffff" stroke="#2f6f4e" stroke-width="2"/>
<text x="930" y="924" font-size="15" font-weight="700" fill="#2f6f4e" text-anchor="middle" font-family="Arial, sans-serif">Taster „Zurück“</text>
<text x="930" y="942" font-size="11.5" fill="#6d7669" text-anchor="middle" font-family="Arial, sans-serif">GPIO6 + GND</text>
<line x1="930.0" y1="840" x2="930.0" y2="900" stroke="#2f6f4e" stroke-width="2.2"/>
<rect x="1032.5" y="900" width="165" height="70" rx="10" fill="#ffffff" stroke="#2f6f4e" stroke-width="2"/>
<text x="1115" y="924" font-size="15" font-weight="700" fill="#2f6f4e" text-anchor="middle" font-family="Arial, sans-serif">Encoder Lautstärke</text>
<text x="1115" y="942" font-size="11.5" fill="#6d7669" text-anchor="middle" font-family="Arial, sans-serif">CLK/DT/SW + 3.3V/GND</text>
<line x1="1115.0" y1="840" x2="1115.0" y2="900" stroke="#2f6f4e" stroke-width="2.2"/>
<text x="930" y="996" font-size="12.5" fill="#6d7669" text-anchor="middle" font-family="ui-monospace, monospace" font-weight="700">Richtung Frontplatte / Bedienseite</text>
<circle cx="60" cy="1020" r="3.5" fill="#b5732a"/>
<text x="76" y="1025" font-size="13" fill="#1c231e" font-family="Arial, sans-serif">Kabel: Standard-40-Pin-IDC verwenden statt selbst zuzuschneiden - universeller, nichts falsch ansteckbar (nicht alle 40 Adern werden gebraucht, siehe docs/owlbox-gpio-pinout.svg).</text>
<circle cx="60" cy="1054" r="3.5" fill="#b5732a"/>
<text x="76" y="1059" font-size="13" fill="#1c231e" font-family="Arial, sans-serif">SPI-Bus (SCK/MOSI/MISO) ist ein Sternpunkt für RC522 + Display - möglichst kurze, direkte Leitungsführung, nicht über die ganze Platine mäandern lassen.</text>
<circle cx="60" cy="1088" r="3.5" fill="#b5732a"/>
<text x="76" y="1093" font-size="13" fill="#1c231e" font-family="Arial, sans-serif">GND und 3.3V zuerst auf eine gemeinsame Schiene bringen (siehe Balken oben auf der Platine), dann von dort zu jedem Modul - statt jede Masse einzeln zurück zum Kabel zu ziehen.</text>
<circle cx="60" cy="1122" r="3.5" fill="#b5732a"/>
<text x="76" y="1127" font-size="13" fill="#1c231e" font-family="Arial, sans-serif">Vor dem endgültigen Verlöten: Durchgangsprüfung mit Multimeter, dass keine zwei Punkte versehentlich kurzgeschlossen sind.</text>
</svg>